<?xml version="1.0" encoding="UTF-8"?>
<svg width="126px" height="20px" viewBox="0 0 126 20" version="1.1" xmlns="http://www.w3.org/2000/svg" xmlns:xlink="http://www.w3.org/1999/xlink">
    <title>编组 13</title>
    <defs>
        <filter id="filter-1">
            <feColorMatrix in="SourceGraphic" type="matrix" values="0 0 0 0 0.929412 0 0 0 0 0.941176 0 0 0 0 0.949020 0 0 0 1.000000 0"></feColorMatrix>
        </filter>
        <polygon id="path-2" points="0.0234093213 0.0172627737 11.1724811 0.0172627737 11.1724811 19.9999891 0.0234093213 19.9999891"></polygon>
    </defs>
    <g id="募资" stroke="none" stroke-width="1" fill="none" fill-rule="evenodd">
        <g id="募资首页进行中-1.1" transform="translate(-48.000000, -20.000000)">
            <g id="编组-13" transform="translate(48.000000, 20.000000)">
                <g filter="url(#filter-1)" id="编组-42">
                    <g id="编组-8">
                        <path d="M5.54037211,20.0000073 L7.23831302,20.0000073 L7.23831302,16.7107372 C7.23831302,16.5835839 7.16311707,16.4664307 7.05140856,16.4193869 C6.95457554,16.3788394 6.84503785,16.3953358 6.76162124,16.4613212 C6.24517844,16.7866496 5.62560367,16.8852628 5.01755919,16.7354818 C4.1115423,16.5111022 3.40584628,15.7494234 3.22057883,14.798438 C3.08858556,14.0620146 3.27484945,13.3173431 3.73132766,12.7550803 C4.1865959,12.1947518 4.85841281,11.8733285 5.57453591,11.8733285 L7.23831302,11.8733285 L7.23831302,8.63661314 L5.54037211,8.63661314 C2.48541653,8.63661314 1.6688953e-14,11.1855182 1.6688953e-14,14.3184745 C1.6688953e-14,17.4514672 2.48541653,20.0000073 5.54037211,20.0000073 Z" id="Fill-1" fill="#FFFFFF"></path>
                        <g id="编组" transform="translate(7.935966, 0.000000)">
                            <mask id="mask-3" fill="white">
                                <use xlink:href="#path-2"></use>
                            </mask>
                            <g id="Clip-4"></g>
                            <path d="M0.0234093213,5.73418613 L0.0234093213,19.9999891 L0.280705449,19.9999891 C1.93583485,19.9999891 3.28238684,18.6192226 3.28238684,16.9217044 L3.28238684,5.69914964 C3.28238684,4.37020803 4.33648246,3.28918613 5.63228697,3.28918613 C6.92809147,3.28918613 7.98218709,4.37020803 7.98218709,5.69914964 C7.98218709,7.02787226 6.92809147,8.10889416 5.63228697,8.10889416 L4.002816,8.10889416 L4.002816,11.5567409 L5.59794523,11.5567409 C8.67179765,11.5567409 11.1724811,9.00801825 11.1724811,5.87506204 L11.1724811,5.69914964 C11.1724811,4.17663139 10.5974261,2.74841971 9.55336607,1.67772628 C8.50934166,0.60699635 7.10464003,0.0172518248 5.59794523,0.0172518248 C2.5240928,0.0172518248 0.0234093213,2.58181387 0.0234093213,5.73418613 Z" id="Fill-3" fill="#FFFFFF" mask="url(#mask-3)"></path>
                        </g>
                    </g>
                </g>
                <path d="M34.8654858,17 L34.8654858,12.8040825 L39.7518932,12.8040825 C41.2198264,12.8040825 42.406238,12.458905 43.3111282,11.7685495 C44.2160185,11.078194 44.6684636,10.042661 44.6684636,8.66195053 L44.6684636,5 L32,5 C32.0402172,5.2233501 33.6991827,6.85786802 33.8399435,6.91878173 L42.677705,6.91878173 L42.677705,8.66195053 C42.677705,9.35230602 42.4162921,9.90052937 41.8934668,10.3066206 C41.3706415,10.7127118 40.6869465,10.9157576 39.8423822,10.9157576 L32.8445642,10.9157576 L32.8445642,17 L34.8654858,17 Z M68.1922896,7.04255319 C68.3333088,6.97771023 69.9650999,5.23775735 70.0053908,5 L56.8301887,5 C56.8704797,5.23775735 58.5224165,6.97771023 58.6432899,7.04255319 L68.1922896,7.04255319 Z M84.5945322,5 L84.5945322,14.0456853 L89.7905275,11.1522843 L89.7905275,5 L91.7728148,5 L91.7728148,11.1522843 L96.9688102,14.0456853 L96.9688102,5 L98.9811321,5 L98.9811321,15.1725888 C99.1012707,15.2538073 101.149788,16.7969542 101.169811,17 L101.169811,17 L98.1701964,17 L90.7816712,12.857868 L83.3931459,17 L80.393531,17 C80.4736236,16.5939088 82.3219097,15.3553299 82.5822102,15.1725888 L82.5822102,15.1725888 L82.5822102,5 L84.5945322,5 Z M58.783489,9.08510638 L58.783489,15.0884785 L67.7987212,15.0576475 L67.7987212,9.08510638 L69.7520216,9.08510638 L69.7520216,17 L56.8301887,17 L56.8301887,9.08510638 L58.783489,9.08510638 Z M113.719309,5 L113.890485,5.06754388 L118.525213,10.105 L123.160728,5.06754388 L123.331904,5 L126,5 L120.596213,10.872 L126,16.7446809 L123.331904,16.7446809 L123.160728,16.677137 L118.525213,11.64 L113.890485,16.677137 L113.719309,16.7446809 L111.051213,16.7446809 L116.454213,10.872 L111.051213,5 L113.719309,5 Z" id="POWX备份" fill="#FFFFFF" fill-rule="nonzero"></path>
            </g>
        </g>
    </g>
</svg>